<mxfile host="app.diagrams.net" modified="2023-11-15T08:21:34.933Z" agent="Mozilla/5.0 (Windows NT 10.0; Win64; x64) AppleWebKit/537.36 (KHTML, like Gecko) Chrome/119.0.0.0 Safari/537.36" etag="yBgLj5szVj9hf3JAb46_" version="22.1.1" type="device" pages="3">
  <diagram name="Page-1" id="uUxzx2YNWYu9K1Dra2-y">
    <mxGraphModel dx="1500" dy="881" grid="1" gridSize="10" guides="1" tooltips="1" connect="1" arrows="1" fold="1" page="1" pageScale="1" pageWidth="850" pageHeight="1100" math="0" shadow="0">
      <root>
        <mxCell id="0" />
        <mxCell id="1" parent="0" />
        <mxCell id="Vo_MrkT3tkwy209WUOFP-3" value="" style="edgeStyle=orthogonalEdgeStyle;rounded=0;orthogonalLoop=1;jettySize=auto;html=1;" parent="1" source="Vo_MrkT3tkwy209WUOFP-1" target="Vo_MrkT3tkwy209WUOFP-2" edge="1">
          <mxGeometry relative="1" as="geometry" />
        </mxCell>
        <mxCell id="Vo_MrkT3tkwy209WUOFP-1" value="start" style="ellipse;whiteSpace=wrap;html=1;" parent="1" vertex="1">
          <mxGeometry x="340" y="10" width="120" height="80" as="geometry" />
        </mxCell>
        <mxCell id="Vo_MrkT3tkwy209WUOFP-5" value="" style="edgeStyle=orthogonalEdgeStyle;rounded=0;orthogonalLoop=1;jettySize=auto;html=1;" parent="1" source="Vo_MrkT3tkwy209WUOFP-2" target="Vo_MrkT3tkwy209WUOFP-4" edge="1">
          <mxGeometry relative="1" as="geometry" />
        </mxCell>
        <mxCell id="Vo_MrkT3tkwy209WUOFP-2" value="i&amp;lt;100" style="rhombus;whiteSpace=wrap;html=1;" parent="1" vertex="1">
          <mxGeometry x="360" y="120" width="80" height="80" as="geometry" />
        </mxCell>
        <mxCell id="Vo_MrkT3tkwy209WUOFP-6" style="edgeStyle=orthogonalEdgeStyle;rounded=0;orthogonalLoop=1;jettySize=auto;html=1;" parent="1" source="Vo_MrkT3tkwy209WUOFP-4" edge="1">
          <mxGeometry relative="1" as="geometry">
            <mxPoint x="230" y="440" as="targetPoint" />
          </mxGeometry>
        </mxCell>
        <mxCell id="iYR5QZ9fdLMvSzOeKEGV-1" value="true" style="edgeLabel;html=1;align=center;verticalAlign=middle;resizable=0;points=[];" vertex="1" connectable="0" parent="Vo_MrkT3tkwy209WUOFP-6">
          <mxGeometry x="-0.5853" relative="1" as="geometry">
            <mxPoint as="offset" />
          </mxGeometry>
        </mxCell>
        <mxCell id="Vo_MrkT3tkwy209WUOFP-8" style="edgeStyle=orthogonalEdgeStyle;rounded=0;orthogonalLoop=1;jettySize=auto;html=1;" parent="1" source="Vo_MrkT3tkwy209WUOFP-4" edge="1">
          <mxGeometry relative="1" as="geometry">
            <mxPoint x="600" y="440" as="targetPoint" />
          </mxGeometry>
        </mxCell>
        <mxCell id="iYR5QZ9fdLMvSzOeKEGV-2" value="false" style="edgeLabel;html=1;align=center;verticalAlign=middle;resizable=0;points=[];" vertex="1" connectable="0" parent="Vo_MrkT3tkwy209WUOFP-8">
          <mxGeometry x="-0.3605" y="-3" relative="1" as="geometry">
            <mxPoint as="offset" />
          </mxGeometry>
        </mxCell>
        <mxCell id="Vo_MrkT3tkwy209WUOFP-4" value="i%3==0 &amp;amp;&amp;amp;&amp;nbsp;&lt;br&gt;i%5==0" style="rhombus;whiteSpace=wrap;html=1;" parent="1" vertex="1">
          <mxGeometry x="360" y="280" width="80" height="80" as="geometry" />
        </mxCell>
        <mxCell id="Vo_MrkT3tkwy209WUOFP-26" style="edgeStyle=orthogonalEdgeStyle;rounded=0;orthogonalLoop=1;jettySize=auto;html=1;entryX=0;entryY=0.5;entryDx=0;entryDy=0;" parent="1" source="Vo_MrkT3tkwy209WUOFP-7" target="Vo_MrkT3tkwy209WUOFP-25" edge="1">
          <mxGeometry relative="1" as="geometry">
            <Array as="points">
              <mxPoint x="220" y="1050" />
            </Array>
          </mxGeometry>
        </mxCell>
        <mxCell id="Vo_MrkT3tkwy209WUOFP-7" value="fizzbuzz" style="shape=parallelogram;perimeter=parallelogramPerimeter;whiteSpace=wrap;html=1;fixedSize=1;" parent="1" vertex="1">
          <mxGeometry x="170" y="440" width="120" height="60" as="geometry" />
        </mxCell>
        <mxCell id="Vo_MrkT3tkwy209WUOFP-11" style="edgeStyle=orthogonalEdgeStyle;rounded=0;orthogonalLoop=1;jettySize=auto;html=1;" parent="1" source="Vo_MrkT3tkwy209WUOFP-9" edge="1">
          <mxGeometry relative="1" as="geometry">
            <mxPoint x="770" y="670" as="targetPoint" />
          </mxGeometry>
        </mxCell>
        <mxCell id="iYR5QZ9fdLMvSzOeKEGV-4" value="true" style="edgeLabel;html=1;align=center;verticalAlign=middle;resizable=0;points=[];" vertex="1" connectable="0" parent="Vo_MrkT3tkwy209WUOFP-11">
          <mxGeometry x="-0.5829" y="1" relative="1" as="geometry">
            <mxPoint as="offset" />
          </mxGeometry>
        </mxCell>
        <mxCell id="Vo_MrkT3tkwy209WUOFP-13" style="edgeStyle=orthogonalEdgeStyle;rounded=0;orthogonalLoop=1;jettySize=auto;html=1;" parent="1" source="Vo_MrkT3tkwy209WUOFP-9" edge="1">
          <mxGeometry relative="1" as="geometry">
            <mxPoint x="420" y="620" as="targetPoint" />
          </mxGeometry>
        </mxCell>
        <mxCell id="iYR5QZ9fdLMvSzOeKEGV-7" value="false" style="edgeLabel;html=1;align=center;verticalAlign=middle;resizable=0;points=[];" vertex="1" connectable="0" parent="Vo_MrkT3tkwy209WUOFP-13">
          <mxGeometry x="-0.5276" y="2" relative="1" as="geometry">
            <mxPoint as="offset" />
          </mxGeometry>
        </mxCell>
        <mxCell id="Vo_MrkT3tkwy209WUOFP-9" value="i%3 == 0" style="rhombus;whiteSpace=wrap;html=1;" parent="1" vertex="1">
          <mxGeometry x="560" y="440" width="80" height="80" as="geometry" />
        </mxCell>
        <mxCell id="Vo_MrkT3tkwy209WUOFP-29" style="edgeStyle=orthogonalEdgeStyle;rounded=0;orthogonalLoop=1;jettySize=auto;html=1;" parent="1" source="Vo_MrkT3tkwy209WUOFP-12" edge="1">
          <mxGeometry relative="1" as="geometry">
            <mxPoint x="620" y="1050" as="targetPoint" />
            <Array as="points">
              <mxPoint x="770" y="1050" />
            </Array>
          </mxGeometry>
        </mxCell>
        <mxCell id="Vo_MrkT3tkwy209WUOFP-12" value="fizz" style="shape=parallelogram;perimeter=parallelogramPerimeter;whiteSpace=wrap;html=1;fixedSize=1;" parent="1" vertex="1">
          <mxGeometry x="710" y="670" width="120" height="60" as="geometry" />
        </mxCell>
        <mxCell id="Vo_MrkT3tkwy209WUOFP-15" style="edgeStyle=orthogonalEdgeStyle;rounded=0;orthogonalLoop=1;jettySize=auto;html=1;" parent="1" source="Vo_MrkT3tkwy209WUOFP-14" edge="1">
          <mxGeometry relative="1" as="geometry">
            <mxPoint x="420" y="860" as="targetPoint" />
          </mxGeometry>
        </mxCell>
        <mxCell id="iYR5QZ9fdLMvSzOeKEGV-6" value="true" style="edgeLabel;html=1;align=center;verticalAlign=middle;resizable=0;points=[];" vertex="1" connectable="0" parent="Vo_MrkT3tkwy209WUOFP-15">
          <mxGeometry x="-0.073" y="-2" relative="1" as="geometry">
            <mxPoint as="offset" />
          </mxGeometry>
        </mxCell>
        <mxCell id="Vo_MrkT3tkwy209WUOFP-22" style="edgeStyle=orthogonalEdgeStyle;rounded=0;orthogonalLoop=1;jettySize=auto;html=1;" parent="1" source="Vo_MrkT3tkwy209WUOFP-14" edge="1">
          <mxGeometry relative="1" as="geometry">
            <mxPoint x="620" y="870" as="targetPoint" />
          </mxGeometry>
        </mxCell>
        <mxCell id="iYR5QZ9fdLMvSzOeKEGV-5" value="false" style="edgeLabel;html=1;align=center;verticalAlign=middle;resizable=0;points=[];" vertex="1" connectable="0" parent="Vo_MrkT3tkwy209WUOFP-22">
          <mxGeometry x="-0.6237" y="3" relative="1" as="geometry">
            <mxPoint as="offset" />
          </mxGeometry>
        </mxCell>
        <mxCell id="Vo_MrkT3tkwy209WUOFP-14" value="i%5==0" style="rhombus;whiteSpace=wrap;html=1;" parent="1" vertex="1">
          <mxGeometry x="380" y="620" width="80" height="80" as="geometry" />
        </mxCell>
        <mxCell id="Vo_MrkT3tkwy209WUOFP-27" style="edgeStyle=orthogonalEdgeStyle;rounded=0;orthogonalLoop=1;jettySize=auto;html=1;entryX=0.5;entryY=0;entryDx=0;entryDy=0;" parent="1" source="Vo_MrkT3tkwy209WUOFP-16" target="Vo_MrkT3tkwy209WUOFP-25" edge="1">
          <mxGeometry relative="1" as="geometry" />
        </mxCell>
        <mxCell id="Vo_MrkT3tkwy209WUOFP-16" value="buzz" style="shape=parallelogram;perimeter=parallelogramPerimeter;whiteSpace=wrap;html=1;fixedSize=1;" parent="1" vertex="1">
          <mxGeometry x="360" y="860" width="120" height="60" as="geometry" />
        </mxCell>
        <mxCell id="Vo_MrkT3tkwy209WUOFP-28" style="edgeStyle=orthogonalEdgeStyle;rounded=0;orthogonalLoop=1;jettySize=auto;html=1;entryX=1;entryY=0.5;entryDx=0;entryDy=0;" parent="1" source="Vo_MrkT3tkwy209WUOFP-23" target="Vo_MrkT3tkwy209WUOFP-25" edge="1">
          <mxGeometry relative="1" as="geometry">
            <Array as="points">
              <mxPoint x="620" y="1050" />
            </Array>
          </mxGeometry>
        </mxCell>
        <mxCell id="Vo_MrkT3tkwy209WUOFP-23" value="i" style="shape=parallelogram;perimeter=parallelogramPerimeter;whiteSpace=wrap;html=1;fixedSize=1;" parent="1" vertex="1">
          <mxGeometry x="560" y="870" width="120" height="60" as="geometry" />
        </mxCell>
        <mxCell id="Vo_MrkT3tkwy209WUOFP-25" value="end" style="ellipse;whiteSpace=wrap;html=1;" parent="1" vertex="1">
          <mxGeometry x="360" y="1010" width="120" height="80" as="geometry" />
        </mxCell>
      </root>
    </mxGraphModel>
  </diagram>
  <diagram id="igiXTWzVGGfH-5ScmouW" name="Trang-2">
    <mxGraphModel dx="1050" dy="617" grid="1" gridSize="10" guides="1" tooltips="1" connect="1" arrows="1" fold="1" page="1" pageScale="1" pageWidth="827" pageHeight="1169" math="0" shadow="0">
      <root>
        <mxCell id="0" />
        <mxCell id="1" parent="0" />
        <mxCell id="p_Jf6Us15DPkQ9Mzg3rK-1" value="" style="edgeStyle=orthogonalEdgeStyle;rounded=0;orthogonalLoop=1;jettySize=auto;html=1;" edge="1" parent="1" source="p_Jf6Us15DPkQ9Mzg3rK-2" target="p_Jf6Us15DPkQ9Mzg3rK-5">
          <mxGeometry relative="1" as="geometry" />
        </mxCell>
        <mxCell id="p_Jf6Us15DPkQ9Mzg3rK-2" value="start" style="ellipse;whiteSpace=wrap;html=1;" vertex="1" parent="1">
          <mxGeometry x="340" y="10" width="120" height="80" as="geometry" />
        </mxCell>
        <mxCell id="p_Jf6Us15DPkQ9Mzg3rK-3" style="edgeStyle=orthogonalEdgeStyle;rounded=0;orthogonalLoop=1;jettySize=auto;html=1;" edge="1" parent="1" source="p_Jf6Us15DPkQ9Mzg3rK-5">
          <mxGeometry relative="1" as="geometry">
            <mxPoint x="400" y="360" as="targetPoint" />
          </mxGeometry>
        </mxCell>
        <mxCell id="S66Q4d7FGmAyti0-IVRM-1" value="true" style="edgeLabel;html=1;align=center;verticalAlign=middle;resizable=0;points=[];" vertex="1" connectable="0" parent="p_Jf6Us15DPkQ9Mzg3rK-3">
          <mxGeometry x="-0.0192" y="1" relative="1" as="geometry">
            <mxPoint as="offset" />
          </mxGeometry>
        </mxCell>
        <mxCell id="aW4H5Acsdy_YdXqSV9ad-1" style="edgeStyle=orthogonalEdgeStyle;rounded=0;orthogonalLoop=1;jettySize=auto;html=1;entryX=0.5;entryY=0;entryDx=0;entryDy=0;" edge="1" parent="1" source="p_Jf6Us15DPkQ9Mzg3rK-5" target="p_Jf6Us15DPkQ9Mzg3rK-11">
          <mxGeometry relative="1" as="geometry">
            <mxPoint x="400" y="470" as="targetPoint" />
            <Array as="points">
              <mxPoint x="571" y="190" />
              <mxPoint x="571" y="470" />
              <mxPoint x="405" y="470" />
            </Array>
          </mxGeometry>
        </mxCell>
        <mxCell id="aW4H5Acsdy_YdXqSV9ad-2" value="false" style="edgeLabel;html=1;align=center;verticalAlign=middle;resizable=0;points=[];" vertex="1" connectable="0" parent="aW4H5Acsdy_YdXqSV9ad-1">
          <mxGeometry x="-0.7918" y="-1" relative="1" as="geometry">
            <mxPoint as="offset" />
          </mxGeometry>
        </mxCell>
        <mxCell id="p_Jf6Us15DPkQ9Mzg3rK-5" value="n&amp;lt;=3" style="rhombus;whiteSpace=wrap;html=1;" vertex="1" parent="1">
          <mxGeometry x="360" y="150" width="80" height="80" as="geometry" />
        </mxCell>
        <mxCell id="p_Jf6Us15DPkQ9Mzg3rK-7" style="edgeStyle=orthogonalEdgeStyle;rounded=0;orthogonalLoop=1;jettySize=auto;html=1;entryX=0;entryY=0.5;entryDx=0;entryDy=0;" edge="1" parent="1" source="p_Jf6Us15DPkQ9Mzg3rK-8" target="p_Jf6Us15DPkQ9Mzg3rK-5">
          <mxGeometry relative="1" as="geometry">
            <Array as="points">
              <mxPoint x="210" y="390" />
              <mxPoint x="210" y="190" />
            </Array>
          </mxGeometry>
        </mxCell>
        <mxCell id="p_Jf6Us15DPkQ9Mzg3rK-8" value="temp = n%10&lt;br&gt;sum += temp*temp*temp&lt;br&gt;n = n/10" style="rounded=0;whiteSpace=wrap;html=1;" vertex="1" parent="1">
          <mxGeometry x="300" y="360" width="210" height="60" as="geometry" />
        </mxCell>
        <mxCell id="p_Jf6Us15DPkQ9Mzg3rK-9" style="edgeStyle=orthogonalEdgeStyle;rounded=0;orthogonalLoop=1;jettySize=auto;html=1;entryX=0.5;entryY=0;entryDx=0;entryDy=0;" edge="1" parent="1" source="p_Jf6Us15DPkQ9Mzg3rK-11" target="p_Jf6Us15DPkQ9Mzg3rK-13">
          <mxGeometry relative="1" as="geometry" />
        </mxCell>
        <mxCell id="p_Jf6Us15DPkQ9Mzg3rK-26" value="true" style="edgeLabel;html=1;align=center;verticalAlign=middle;resizable=0;points=[];" vertex="1" connectable="0" parent="p_Jf6Us15DPkQ9Mzg3rK-9">
          <mxGeometry x="-0.3829" relative="1" as="geometry">
            <mxPoint as="offset" />
          </mxGeometry>
        </mxCell>
        <mxCell id="p_Jf6Us15DPkQ9Mzg3rK-10" style="edgeStyle=orthogonalEdgeStyle;rounded=0;orthogonalLoop=1;jettySize=auto;html=1;" edge="1" parent="1" source="p_Jf6Us15DPkQ9Mzg3rK-11" target="p_Jf6Us15DPkQ9Mzg3rK-15">
          <mxGeometry relative="1" as="geometry" />
        </mxCell>
        <mxCell id="p_Jf6Us15DPkQ9Mzg3rK-25" value="false" style="edgeLabel;html=1;align=center;verticalAlign=middle;resizable=0;points=[];" vertex="1" connectable="0" parent="p_Jf6Us15DPkQ9Mzg3rK-10">
          <mxGeometry x="-0.49" y="-3" relative="1" as="geometry">
            <mxPoint as="offset" />
          </mxGeometry>
        </mxCell>
        <mxCell id="p_Jf6Us15DPkQ9Mzg3rK-11" value="i == sum" style="rhombus;whiteSpace=wrap;html=1;" vertex="1" parent="1">
          <mxGeometry x="365" y="525" width="80" height="80" as="geometry" />
        </mxCell>
        <mxCell id="p_Jf6Us15DPkQ9Mzg3rK-12" style="edgeStyle=orthogonalEdgeStyle;rounded=0;orthogonalLoop=1;jettySize=auto;html=1;entryX=1;entryY=0.5;entryDx=0;entryDy=0;" edge="1" parent="1" source="p_Jf6Us15DPkQ9Mzg3rK-13" target="p_Jf6Us15DPkQ9Mzg3rK-18">
          <mxGeometry relative="1" as="geometry">
            <Array as="points">
              <mxPoint x="570" y="940" />
            </Array>
          </mxGeometry>
        </mxCell>
        <mxCell id="p_Jf6Us15DPkQ9Mzg3rK-13" value="la so hoan hao" style="shape=parallelogram;perimeter=parallelogramPerimeter;whiteSpace=wrap;html=1;fixedSize=1;" vertex="1" parent="1">
          <mxGeometry x="500" y="660" width="120" height="60" as="geometry" />
        </mxCell>
        <mxCell id="p_Jf6Us15DPkQ9Mzg3rK-14" style="edgeStyle=orthogonalEdgeStyle;rounded=0;orthogonalLoop=1;jettySize=auto;html=1;entryX=0;entryY=0.5;entryDx=0;entryDy=0;" edge="1" parent="1" source="p_Jf6Us15DPkQ9Mzg3rK-15" target="p_Jf6Us15DPkQ9Mzg3rK-18">
          <mxGeometry relative="1" as="geometry">
            <Array as="points">
              <mxPoint x="240" y="940" />
            </Array>
          </mxGeometry>
        </mxCell>
        <mxCell id="p_Jf6Us15DPkQ9Mzg3rK-15" value="khong phai so hoan hao" style="shape=parallelogram;perimeter=parallelogramPerimeter;whiteSpace=wrap;html=1;fixedSize=1;" vertex="1" parent="1">
          <mxGeometry x="180" y="680" width="120" height="60" as="geometry" />
        </mxCell>
        <mxCell id="p_Jf6Us15DPkQ9Mzg3rK-18" value="end" style="ellipse;whiteSpace=wrap;html=1;" vertex="1" parent="1">
          <mxGeometry x="345" y="900" width="120" height="80" as="geometry" />
        </mxCell>
      </root>
    </mxGraphModel>
  </diagram>
  <diagram id="C2zcbm3J4Xjrooo8POEb" name="Trang-3">
    <mxGraphModel dx="1050" dy="617" grid="1" gridSize="10" guides="1" tooltips="1" connect="1" arrows="1" fold="1" page="1" pageScale="1" pageWidth="827" pageHeight="1169" math="0" shadow="0">
      <root>
        <mxCell id="0" />
        <mxCell id="1" parent="0" />
        <mxCell id="dFWMiQv_cY3yMr9QggsZ-21" value="" style="edgeStyle=orthogonalEdgeStyle;rounded=0;orthogonalLoop=1;jettySize=auto;html=1;" edge="1" parent="1" source="dFWMiQv_cY3yMr9QggsZ-22" target="dFWMiQv_cY3yMr9QggsZ-24">
          <mxGeometry relative="1" as="geometry" />
        </mxCell>
        <mxCell id="dFWMiQv_cY3yMr9QggsZ-22" value="start" style="ellipse;whiteSpace=wrap;html=1;" vertex="1" parent="1">
          <mxGeometry x="360" y="170" width="120" height="80" as="geometry" />
        </mxCell>
        <mxCell id="dFWMiQv_cY3yMr9QggsZ-23" value="" style="edgeStyle=orthogonalEdgeStyle;rounded=0;orthogonalLoop=1;jettySize=auto;html=1;" edge="1" parent="1" source="dFWMiQv_cY3yMr9QggsZ-24" target="dFWMiQv_cY3yMr9QggsZ-26">
          <mxGeometry relative="1" as="geometry" />
        </mxCell>
        <mxCell id="dFWMiQv_cY3yMr9QggsZ-24" value="money, rate,time" style="shape=parallelogram;perimeter=parallelogramPerimeter;whiteSpace=wrap;html=1;fixedSize=1;" vertex="1" parent="1">
          <mxGeometry x="360" y="300" width="120" height="60" as="geometry" />
        </mxCell>
        <mxCell id="dFWMiQv_cY3yMr9QggsZ-25" style="edgeStyle=orthogonalEdgeStyle;rounded=0;orthogonalLoop=1;jettySize=auto;html=1;entryX=0.5;entryY=0;entryDx=0;entryDy=0;" edge="1" parent="1" source="dFWMiQv_cY3yMr9QggsZ-26" target="dFWMiQv_cY3yMr9QggsZ-30">
          <mxGeometry relative="1" as="geometry" />
        </mxCell>
        <mxCell id="dFWMiQv_cY3yMr9QggsZ-26" value="moneyReceive=money&lt;br&gt;i=0" style="shape=parallelogram;perimeter=parallelogramPerimeter;whiteSpace=wrap;html=1;fixedSize=1;" vertex="1" parent="1">
          <mxGeometry x="330" y="390" width="180" height="80" as="geometry" />
        </mxCell>
        <mxCell id="dFWMiQv_cY3yMr9QggsZ-27" style="edgeStyle=orthogonalEdgeStyle;rounded=0;orthogonalLoop=1;jettySize=auto;html=1;entryX=0.5;entryY=0;entryDx=0;entryDy=0;" edge="1" parent="1" source="dFWMiQv_cY3yMr9QggsZ-30" target="dFWMiQv_cY3yMr9QggsZ-31">
          <mxGeometry relative="1" as="geometry" />
        </mxCell>
        <mxCell id="dFWMiQv_cY3yMr9QggsZ-28" value="true" style="edgeLabel;html=1;align=center;verticalAlign=middle;resizable=0;points=[];" vertex="1" connectable="0" parent="dFWMiQv_cY3yMr9QggsZ-27">
          <mxGeometry x="0.2842" y="-5" relative="1" as="geometry">
            <mxPoint as="offset" />
          </mxGeometry>
        </mxCell>
        <mxCell id="dFWMiQv_cY3yMr9QggsZ-29" value="" style="edgeStyle=orthogonalEdgeStyle;rounded=0;orthogonalLoop=1;jettySize=auto;html=1;" edge="1" parent="1" source="dFWMiQv_cY3yMr9QggsZ-30" target="dFWMiQv_cY3yMr9QggsZ-33">
          <mxGeometry relative="1" as="geometry" />
        </mxCell>
        <mxCell id="dFWMiQv_cY3yMr9QggsZ-30" value="i&amp;lt;time" style="rhombus;whiteSpace=wrap;html=1;" vertex="1" parent="1">
          <mxGeometry x="380" y="500" width="80" height="80" as="geometry" />
        </mxCell>
        <mxCell id="dFWMiQv_cY3yMr9QggsZ-31" value="&#xa;&lt;div style=&quot;color: rgb(212, 212, 212); background-color: rgb(30, 30, 30); font-family: Consolas, &amp;quot;Courier New&amp;quot;, monospace; font-weight: normal; font-size: 14px; line-height: 19px;&quot;&gt;&lt;div&gt;&lt;span style=&quot;color: #d4d4d4;&quot;&gt;&amp;nbsp;&lt;/span&gt;&lt;span style=&quot;color: #c8c8c8;&quot;&gt;moneyReceive&lt;/span&gt;&lt;span style=&quot;color: #d4d4d4;&quot;&gt;+=&lt;/span&gt;&lt;span style=&quot;color: #c8c8c8;&quot;&gt;moneyReceive&lt;/span&gt;&lt;span style=&quot;color: #d4d4d4;&quot;&gt;*&lt;/span&gt;&lt;span style=&quot;color: #c8c8c8;&quot;&gt;rate&lt;/span&gt;&lt;span style=&quot;color: #d4d4d4;&quot;&gt;;&lt;/span&gt;&lt;/div&gt;&lt;/div&gt;&#xa;&#xa;" style="rounded=1;whiteSpace=wrap;html=1;" vertex="1" parent="1">
          <mxGeometry x="275" y="650" width="290" height="50" as="geometry" />
        </mxCell>
        <mxCell id="dFWMiQv_cY3yMr9QggsZ-32" value="" style="edgeStyle=orthogonalEdgeStyle;rounded=0;orthogonalLoop=1;jettySize=auto;html=1;" edge="1" parent="1" source="dFWMiQv_cY3yMr9QggsZ-33" target="dFWMiQv_cY3yMr9QggsZ-34">
          <mxGeometry relative="1" as="geometry" />
        </mxCell>
        <mxCell id="dFWMiQv_cY3yMr9QggsZ-33" value="moneyReceive" style="whiteSpace=wrap;html=1;" vertex="1" parent="1">
          <mxGeometry x="490" y="510" width="120" height="60" as="geometry" />
        </mxCell>
        <mxCell id="dFWMiQv_cY3yMr9QggsZ-34" value="end" style="ellipse;whiteSpace=wrap;html=1;" vertex="1" parent="1">
          <mxGeometry x="640" y="500" width="80" height="80" as="geometry" />
        </mxCell>
      </root>
    </mxGraphModel>
  </diagram>
</mxfile>
